<svg width="145" height="30" viewBox="0 0 145 30" fill="none" xmlns="http://www.w3.org/2000/svg">
<path d="M9.46 23L5.71 16.67C5.11 17.27 4.48 17.87 3.82 18.47V23H0.37V0.8H3.82V14.66C4.96 13.5 5.94 12.39 6.76 11.33C7.6 10.25 8.37 9.07 9.07 7.79H13.03C12.37 8.99 11.65 10.13 10.87 11.21C10.09 12.29 9.23 13.38 8.29 14.48L13.63 23H9.46ZM27.8568 23.15C26.8368 23.15 26.0168 22.94 25.3968 22.52C24.7968 22.1 24.3568 21.58 24.0768 20.96C23.2168 21.76 22.3868 22.35 21.5868 22.73C20.7868 23.11 19.9268 23.3 19.0068 23.3C17.6668 23.3 16.6768 22.87 16.0368 22.01C15.4168 21.15 15.1068 20.06 15.1068 18.74C15.1068 17.86 15.2668 17.09 15.5868 16.43C15.9268 15.75 16.4768 15.22 17.2368 14.84C17.9968 14.46 19.0368 14.27 20.3568 14.27C20.8768 14.27 21.4168 14.31 21.9768 14.39C22.5368 14.45 23.0968 14.53 23.6568 14.63V12.86C23.6568 12.02 23.4268 11.45 22.9668 11.15C22.5068 10.83 21.8868 10.67 21.1068 10.67C20.5068 10.67 19.8468 10.75 19.1268 10.91C18.4268 11.07 17.6668 11.32 16.8468 11.66L15.8568 8.72C17.8768 7.9 19.7068 7.49 21.3468 7.49C22.8268 7.49 23.9668 7.74 24.7668 8.24C25.5868 8.74 26.1568 9.4 26.4768 10.22C26.7968 11.04 26.9568 11.92 26.9568 12.86V18.71C26.9568 19.01 27.0368 19.3 27.1968 19.58C27.3768 19.84 27.7168 19.97 28.2168 19.97H28.5468V23.15H27.8568ZM18.4368 18.68C18.4368 19.22 18.5568 19.65 18.7968 19.97C19.0368 20.27 19.3868 20.42 19.8468 20.42C20.3068 20.42 20.8268 20.3 21.4068 20.06C21.9868 19.82 22.7368 19.26 23.6568 18.38V17.09C22.6168 16.91 21.5968 16.82 20.5968 16.82C19.8168 16.82 19.2568 16.98 18.9168 17.3C18.5968 17.62 18.4368 18.08 18.4368 18.68ZM43.0619 23.15C42.0419 23.15 41.2219 22.94 40.6019 22.52C40.0019 22.1 39.5619 21.58 39.2819 20.96C38.4219 21.76 37.5919 22.35 36.7919 22.73C35.9919 23.11 35.1319 23.3 34.2119 23.3C32.8719 23.3 31.8819 22.87 31.2419 22.01C30.6219 21.15 30.3119 20.06 30.3119 18.74C30.3119 17.86 30.4719 17.09 30.7919 16.43C31.1319 15.75 31.6819 15.22 32.4419 14.84C33.2019 14.46 34.2419 14.27 35.5619 14.27C36.0819 14.27 36.6219 14.31 37.1819 14.39C37.7419 14.45 38.3019 14.53 38.8619 14.63V12.86C38.8619 12.02 38.6319 11.45 38.1719 11.15C37.7119 10.83 37.0919 10.67 36.3119 10.67C35.7119 10.67 35.0519 10.75 34.3319 10.91C33.6319 11.07 32.8719 11.32 32.0519 11.66L31.0619 8.72C33.0819 7.9 34.9119 7.49 36.5519 7.49C38.0319 7.49 39.1719 7.74 39.9719 8.24C40.7919 8.74 41.3619 9.4 41.6819 10.22C42.0019 11.04 42.1619 11.92 42.1619 12.86V18.71C42.1619 19.01 42.2419 19.3 42.4019 19.58C42.5819 19.84 42.9219 19.97 43.4219 19.97H43.7519V23.15H43.0619ZM33.6419 18.68C33.6419 19.22 33.7619 19.65 34.0019 19.97C34.2419 20.27 34.5919 20.42 35.0519 20.42C35.5119 20.42 36.0319 20.3 36.6119 20.06C37.1919 19.82 37.9419 19.26 38.8619 18.38V17.09C37.8219 16.91 36.8019 16.82 35.8019 16.82C35.0219 16.82 34.4619 16.98 34.1219 17.3C33.8019 17.62 33.6419 18.08 33.6419 18.68ZM50.197 12.47V23H46.747V7.79H50.017V9.8C50.957 8.98 51.827 8.39 52.627 8.03C53.427 7.67 54.247 7.49 55.087 7.49C56.947 7.49 58.217 8.31 58.897 9.95C59.897 9.07 60.827 8.44 61.687 8.06C62.547 7.68 63.417 7.49 64.297 7.49C65.697 7.49 66.767 7.96 67.507 8.9C68.247 9.82 68.617 11.12 68.617 12.8V23H65.167V13.22C65.167 11.54 64.527 10.7 63.247 10.7C62.747 10.7 62.197 10.82 61.597 11.06C60.997 11.3 60.267 11.77 59.407 12.47V23H55.957V13.22C55.957 11.54 55.317 10.7 54.037 10.7C53.537 10.7 52.987 10.82 52.387 11.06C51.787 11.3 51.057 11.77 50.197 12.47ZM84.6927 23.15C83.6727 23.15 82.8527 22.94 82.2327 22.52C81.6327 22.1 81.1927 21.58 80.9127 20.96C80.0527 21.76 79.2227 22.35 78.4227 22.73C77.6227 23.11 76.7627 23.3 75.8427 23.3C74.5027 23.3 73.5127 22.87 72.8727 22.01C72.2527 21.15 71.9427 20.06 71.9427 18.74C71.9427 17.86 72.1027 17.09 72.4227 16.43C72.7627 15.75 73.3127 15.22 74.0727 14.84C74.8327 14.46 75.8727 14.27 77.1927 14.27C77.7127 14.27 78.2527 14.31 78.8127 14.39C79.3727 14.45 79.9327 14.53 80.4927 14.63V12.86C80.4927 12.02 80.2627 11.45 79.8027 11.15C79.3427 10.83 78.7227 10.67 77.9427 10.67C77.3427 10.67 76.6827 10.75 75.9627 10.91C75.2627 11.07 74.5027 11.32 73.6827 11.66L72.6927 8.72C74.7127 7.9 76.5427 7.49 78.1827 7.49C79.6627 7.49 80.8027 7.74 81.6027 8.24C82.4227 8.74 82.9927 9.4 83.3127 10.22C83.6327 11.04 83.7927 11.92 83.7927 12.86V18.71C83.7927 19.01 83.8727 19.3 84.0327 19.58C84.2127 19.84 84.5527 19.97 85.0527 19.97H85.3827V23.15H84.6927ZM75.2727 18.68C75.2727 19.22 75.3927 19.65 75.6327 19.97C75.8727 20.27 76.2227 20.42 76.6827 20.42C77.1427 20.42 77.6627 20.3 78.2427 20.06C78.8227 19.82 79.5727 19.26 80.4927 18.38V17.09C79.4527 16.91 78.4327 16.82 77.4327 16.82C76.6527 16.82 76.0927 16.98 75.7527 17.3C75.4327 17.62 75.2727 18.08 75.2727 18.68ZM88.2878 18.71V0.8H91.7378V18.71C91.7378 19.01 91.8078 19.3 91.9478 19.58C92.1078 19.84 92.4078 19.97 92.8478 19.97H93.3278V23.15H92.4878C91.3478 23.15 90.4778 22.93 89.8778 22.49C89.2778 22.05 88.8578 21.49 88.6178 20.81C88.3978 20.13 88.2878 19.43 88.2878 18.71Z" fill="#1479FF"/>
<path d="M115.305 24.53C115.305 26.15 114.665 27.41 113.385 28.31C112.125 29.23 110.365 29.69 108.105 29.69C107.045 29.69 105.925 29.57 104.745 29.33C103.565 29.09 102.475 28.69 101.475 28.13L102.465 25.4C103.425 25.88 104.375 26.22 105.315 26.42C106.255 26.64 107.175 26.75 108.075 26.75C109.335 26.75 110.295 26.58 110.955 26.24C111.615 25.9 111.945 25.45 111.945 24.89C111.945 24.03 111.435 23.6 110.415 23.6H106.815C105.835 23.6 105.045 23.44 104.445 23.12C103.845 22.8 103.405 22.39 103.125 21.89C102.845 21.37 102.705 20.83 102.705 20.27C102.705 19.69 102.825 19.15 103.065 18.65C103.325 18.13 103.675 17.65 104.115 17.21C103.395 16.77 102.815 16.18 102.375 15.44C101.955 14.7 101.745 13.81 101.745 12.77C101.745 11.59 101.995 10.61 102.495 9.83C102.995 9.05 103.675 8.47 104.535 8.09C105.415 7.69 106.385 7.49 107.445 7.49H107.955C108.355 7.49 108.745 7.52 109.125 7.58C109.505 7.62 109.865 7.69 110.205 7.79H115.635V10.73L112.635 10.25C112.935 10.57 113.165 10.97 113.325 11.45C113.505 11.91 113.595 12.48 113.595 13.16C113.595 14.18 113.335 15.06 112.815 15.8C112.315 16.52 111.635 17.08 110.775 17.48C109.935 17.86 108.995 18.05 107.955 18.05H107.445C107.045 18.05 106.665 18.02 106.305 17.96C106.085 18.2 105.925 18.45 105.825 18.71C105.725 18.95 105.675 19.18 105.675 19.4C105.675 20.1 106.125 20.45 107.025 20.45H110.685C112.065 20.45 113.175 20.81 114.015 21.53C114.875 22.23 115.305 23.23 115.305 24.53ZM107.955 15.23C108.575 15.23 109.115 15.02 109.575 14.6C110.055 14.18 110.295 13.57 110.295 12.77C110.295 11.97 110.055 11.36 109.575 10.94C109.115 10.52 108.575 10.31 107.955 10.31H107.445C106.805 10.31 106.245 10.52 105.765 10.94C105.305 11.36 105.075 11.97 105.075 12.77C105.075 13.57 105.305 14.18 105.765 14.6C106.245 15.02 106.805 15.23 107.445 15.23H107.955ZM126.052 10.7C125.552 10.7 124.982 10.82 124.342 11.06C123.702 11.3 122.942 11.77 122.062 12.47V23H118.612V0.8H122.062V9.68C122.982 8.9 123.842 8.34 124.642 8C125.442 7.66 126.262 7.49 127.102 7.49C128.562 7.49 129.672 7.96 130.432 8.9C131.192 9.82 131.572 11.12 131.572 12.8V23H128.122V13.22C128.122 11.54 127.432 10.7 126.052 10.7ZM144.712 10.94C143.772 10.94 142.872 11.09 142.012 11.39C141.172 11.67 140.362 12.13 139.582 12.77V23H136.132V7.79H139.402V10.13C140.422 9.17 141.332 8.49 142.132 8.09C142.932 7.69 143.792 7.49 144.712 7.49V10.94Z" fill="white"/>
</svg>
